<svg width="289" height="61" viewBox="0 0 289 61" fill="none" xmlns="http://www.w3.org/2000/svg">
<path d="M1.132 6.828C3.988 3.72 10.204 0.611999 19.024 0.443996C30.952 0.528 37.42 5.82 37.42 15.228C37.42 22.368 33.64 26.904 28.012 29.256C35.908 30.684 39.94 35.556 39.94 43.452C39.94 53.448 32.38 60.588 18.436 60.672C9.196 60.588 3.064 57.144 0.712 54.876V41.856C4.66 47.148 10.372 50.76 18.52 50.676C25.66 50.676 30.028 47.652 30.028 42.36C30.028 37.152 26.668 34.128 17.68 34.128H10.204V26.232H15.916C23.224 26.232 27.508 23.964 27.508 18.168C27.508 12.96 24.316 10.524 17.596 10.524C10.372 10.608 5.248 14.052 1.132 19.26V6.828ZM70.0908 0.528C84.0348 0.528 92.8548 10.272 92.8548 30.684C92.8548 52.608 82.6068 60.84 70.3428 60.84C56.3988 60.756 47.6628 51.096 47.6628 30.684C47.6628 8.844 57.8268 0.611999 70.0908 0.528ZM57.7428 30.684C57.7428 45.72 62.5308 50.928 70.3428 51.012C78.4068 51.012 82.7748 45.72 82.7748 30.684C82.7748 15.732 77.9028 10.524 70.1748 10.356C62.1108 10.356 57.7428 15.648 57.7428 30.684ZM164.833 60V10.86H142.489L142.321 13.632C139.969 56.388 132.493 60.756 123.925 60.756C122.077 60.756 120.481 60.504 119.221 59.916V49.332C120.061 49.668 120.985 49.752 121.741 49.752C125.773 49.752 130.561 47.232 132.241 13.38L132.829 1.2H175.333V60H164.833ZM228.208 24.888V34.548H201.16V50.34H232.24V60H190.66V1.2H231.316V10.86H201.16V24.888H228.208ZM288.39 1.2V10.86H268.566V60H258.066V10.86H238.578V1.2H288.39Z" fill="#1F1F1F"/>
<path d="M1.132 6.828C3.988 3.72 10.204 0.611999 19.024 0.443996C30.952 0.528 37.42 5.82 37.42 15.228C37.42 22.368 33.64 26.904 28.012 29.256C35.908 30.684 39.94 35.556 39.94 43.452C39.94 53.448 32.38 60.588 18.436 60.672C9.196 60.588 3.064 57.144 0.712 54.876V41.856C4.66 47.148 10.372 50.76 18.52 50.676C25.66 50.676 30.028 47.652 30.028 42.36C30.028 37.152 26.668 34.128 17.68 34.128H10.204V26.232H15.916C23.224 26.232 27.508 23.964 27.508 18.168C27.508 12.96 24.316 10.524 17.596 10.524C10.372 10.608 5.248 14.052 1.132 19.26V6.828ZM70.0908 0.528C84.0348 0.528 92.8548 10.272 92.8548 30.684C92.8548 52.608 82.6068 60.84 70.3428 60.84C56.3988 60.756 47.6628 51.096 47.6628 30.684C47.6628 8.844 57.8268 0.611999 70.0908 0.528ZM57.7428 30.684C57.7428 45.72 62.5308 50.928 70.3428 51.012C78.4068 51.012 82.7748 45.72 82.7748 30.684C82.7748 15.732 77.9028 10.524 70.1748 10.356C62.1108 10.356 57.7428 15.648 57.7428 30.684ZM164.833 60V10.86H142.489L142.321 13.632C139.969 56.388 132.493 60.756 123.925 60.756C122.077 60.756 120.481 60.504 119.221 59.916V49.332C120.061 49.668 120.985 49.752 121.741 49.752C125.773 49.752 130.561 47.232 132.241 13.38L132.829 1.2H175.333V60H164.833ZM228.208 24.888V34.548H201.16V50.34H232.24V60H190.66V1.2H231.316V10.86H201.16V24.888H228.208ZM288.39 1.2V10.86H268.566V60H258.066V10.86H238.578V1.2H288.39Z" fill="url(#paint0_linear_755_786)"/>
<defs>
<linearGradient id="paint0_linear_755_786" x1="108.612" y1="-49.2481" x2="182.098" y2="99.4254" gradientUnits="userSpaceOnUse">
<stop stop-color="#00AC7B"/>
<stop offset="1" stop-color="#078BE3"/>
</linearGradient>
</defs>
</svg>
