<svg width="114" height="175" viewBox="0 0 114 175" fill="none" xmlns="http://www.w3.org/2000/svg">
<path d="M1.22056 18.5495C9.52034 9.51884 27.5846 0.488153 53.2163 0C87.8801 0.244084 106.677 15.6206 106.677 42.9568C106.677 63.7029 95.6916 76.8828 79.3362 83.7169C102.283 87.8661 114 102.022 114 124.965C114 154.01 92.03 174.756 51.5075 175C24.6552 174.756 6.83512 164.749 0 158.159V120.328C11.4732 135.704 28.0728 146.199 51.7516 145.955C72.5011 145.955 85.1949 137.169 85.1949 121.792C85.1949 106.66 75.4304 97.8731 49.3105 97.8731H27.5846V74.9303H44.1842C65.4218 74.9303 77.8715 68.3403 77.8715 51.4993C77.8715 36.3668 68.5953 29.2887 49.0664 29.2887C28.0728 29.5328 13.182 39.5397 1.22056 54.6722V18.5495Z" fill="#1F1F1F"/>
<path d="M1.22056 18.5495C9.52034 9.51884 27.5846 0.488153 53.2163 0C87.8801 0.244084 106.677 15.6206 106.677 42.9568C106.677 63.7029 95.6916 76.8828 79.3362 83.7169C102.283 87.8661 114 102.022 114 124.965C114 154.01 92.03 174.756 51.5075 175C24.6552 174.756 6.83512 164.749 0 158.159V120.328C11.4732 135.704 28.0728 146.199 51.7516 145.955C72.5011 145.955 85.1949 137.169 85.1949 121.792C85.1949 106.66 75.4304 97.8731 49.3105 97.8731H27.5846V74.9303H44.1842C65.4218 74.9303 77.8715 68.3403 77.8715 51.4993C77.8715 36.3668 68.5953 29.2887 49.0664 29.2887C28.0728 29.5328 13.182 39.5397 1.22056 54.6722V18.5495Z" fill="url(#paint0_linear_975_47)"/>
<defs>
<linearGradient id="paint0_linear_975_47" x1="97.0003" y1="-146.078" x2="349.742" y2="29.1542" gradientUnits="userSpaceOnUse">
<stop stop-color="#00AC7B"/>
<stop offset="1" stop-color="#078BE3"/>
</linearGradient>
</defs>
</svg>
