<svg width="28" height="20" viewBox="0 0 28 20" fill="none" xmlns="http://www.w3.org/2000/svg">
<path fill-rule="evenodd" clip-rule="evenodd" d="M8.124 0C6.9033 0 5.77786 0.66141 5.18428 1.72756L2.73853 6.0874L2.52635 6.1924C0.99446 6.9885 0 8.3419 0 10V15.431C0 17.9352 2.03061 19.965 4.535 19.965C6.52 19.965 8.2768 18.6824 9.1453 17H18.8599C19.7366 18.6526 21.5571 19.965 23.466 19.965C25.9703 19.965 28 17.9353 28 15.431V10C28 8.2119 27.1022 6.809 25.5202 6.0723L22.7911 1.68574C22.2221 0.66131 21.0976 0 19.877 0H8.124ZM24.3454 7.97H24.844L25.0027 8.0634C25.6649 8.4848 26 9.1253 26 10V15.431C26 16.8307 24.8657 17.965 23.466 17.965C22.2171 17.965 20.8788 16.8669 20.4499 15.6641L20.2131 15H7.7864L7.5499 15.6647C7.1036 16.9189 5.85464 17.965 4.535 17.965C3.13501 17.965 2 16.8304 2 15.431V10C2 9.1692 2.52805 8.4467 3.44293 7.97H3.97563H24.3454ZM23.1011 5.9697L20.9898 2.5758C20.736 2.2171 20.3223 2 19.877 2H8.124C7.6289 2 7.1723 2.2684 6.9301 2.7033L5.09773 5.9697H23.1011ZM6.4664 9.9996C5.79744 9.9996 5.27344 10.5296 5.27344 11.1816C5.27344 11.8386 5.80744 12.3636 6.4664 12.3636H8.8074C9.4764 12.3636 10.0004 11.8346 10.0004 11.1816C10.0004 10.5246 9.4664 9.9996 8.8074 9.9996H6.4664ZM19.1932 9.9996C18.5242 9.9996 18.0002 10.5296 18.0002 11.1816C18.0002 11.8386 18.5342 12.3636 19.1932 12.3636H21.5342C22.2032 12.3636 22.7272 11.8346 22.7272 11.1816C22.7272 10.5246 22.1932 9.9996 21.5342 9.9996H19.1932Z" fill="#232323"/>
</svg>
