<svg width="28" height="24" viewBox="0 0 28 24" fill="none" xmlns="http://www.w3.org/2000/svg">
<path fill-rule="evenodd" clip-rule="evenodd" d="M2 13V2H15V13H2ZM0 14V1C0 0.44772 0.44772 0 1 0H16C16.5523 0 17 0.44772 17 1V5H21.6671C22.0598 5 22.4162 5.2299 22.5781 5.5876L25.9331 13H26C27.1053 13 28 13.8947 28 15V19C28 20.1053 27.1053 21 26 21H24.7087C24.4661 22.6964 23.0076 24 21.2441 24C19.4806 24 18.0221 22.6964 17.7795 21H9.7087C9.4661 22.6964 8.0076 24 6.2441 24C4.48058 24 3.02208 22.6964 2.77953 21H1C0.44772 21 0 20.5523 0 20V14ZM17 7V13H23.738L21.022 7H17ZM16 15H2V19H3.08081C3.64245 17.8174 4.84764 17 6.2441 17C7.6406 17 8.8458 17.8174 9.4074 19H18.0808C18.6424 17.8174 19.8476 17 21.2441 17C22.6406 17 23.8458 17.8174 24.4074 19H26V15H25.2881H16ZM6.2441 19C7.0728 19 7.7441 19.6713 7.7441 20.5C7.7441 21.3287 7.0728 22 6.2441 22C5.41538 22 4.7441 21.3287 4.7441 20.5C4.7441 19.6713 5.41538 19 6.2441 19ZM21.2441 19C22.0728 19 22.7441 19.6713 22.7441 20.5C22.7441 21.3287 22.0728 22 21.2441 22C20.4154 22 19.7441 21.3287 19.7441 20.5C19.7441 19.6713 20.4154 19 21.2441 19Z" fill="#232323"/>
</svg>
