<svg width="27" height="23" viewBox="0 0 27 23" fill="none" xmlns="http://www.w3.org/2000/svg">
<path fill-rule="evenodd" clip-rule="evenodd" d="M19.9361 0H7.0639C6.1001 0 5.5866 0.0991602 5.05156 0.38532C4.55136 0.65283 4.15283 1.05136 3.88532 1.55156C3.59916 2.08664 3.5 2.6001 3.5 3.5639V17.7181C3.5 18.2754 3.56464 18.6101 3.75175 18.96C3.93211 19.2973 4.20275 19.5679 4.53998 19.7482C4.82659 19.9015 5.10302 19.9726 5.5 19.9933V21.5L5.5067 21.6166C5.5645 22.114 5.9872 22.5 6.5 22.5C7.0523 22.5 7.5 22.0523 7.5 21.5V20H19.5V21.5L19.5067 21.6166C19.5645 22.114 19.9872 22.5 20.5 22.5C21.0523 22.5 21.5 22.0523 21.5 21.5V19.9933C21.897 19.9726 22.1734 19.9015 22.46 19.7482C22.7973 19.5679 23.0679 19.2973 23.2482 18.96C23.4354 18.6101 23.5 18.2754 23.5 17.7181V3.5639C23.5 2.6001 23.4008 2.08664 23.1147 1.55156C22.8472 1.05136 22.4486 0.65283 21.9484 0.38532C21.4134 0.0991602 20.8999 0 19.9361 0ZM6.8944 2.00099L19.9361 2C20.598 2 20.7995 2.03892 21.0052 2.14895C21.1569 2.23005 21.2699 2.3431 21.3511 2.49475C21.4511 2.68178 21.4923 2.86535 21.499 3.3944L21.4986 9H5.5007L5.5 3.5639C5.5 2.90203 5.5389 2.70048 5.6489 2.49475C5.7301 2.3431 5.8431 2.23005 5.9948 2.14895C6.1818 2.04892 6.3654 2.00766 6.8944 2.00099ZM5.501 11L5.502 17.9194L5.507 17.992L5.5806 17.998L21.2181 18C21.3138 18 21.3769 17.9994 21.4194 17.998L21.492 17.992L21.498 17.9194L21.4985 11H5.501ZM8.5 14C8.5 14.5523 8.0523 15 7.5 15C6.9477 15 6.5 14.5523 6.5 14C6.5 13.4477 6.9477 13 7.5 13C8.0523 13 8.5 13.4477 8.5 14ZM19.5 15C20.0523 15 20.5 14.5523 20.5 14C20.5 13.4477 20.0523 13 19.5 13C18.9477 13 18.5 13.4477 18.5 14C18.5 14.5523 18.9477 15 19.5 15ZM26 7C26.5128 7 26.9355 7.386 26.9933 7.8834L27 8V10C27 10.5523 26.5523 11 26 11C25.4872 11 25.0645 10.614 25.0067 10.1166L25 10V8C25 7.4477 25.4477 7 26 7ZM1.99327 7.8834C1.93551 7.386 1.51284 7 1 7C0.44772 7 0 7.4477 0 8V10L0.00673008 10.1166C0.0644901 10.614 0.48716 11 1 11C1.55228 11 2 10.5523 2 10V8L1.99327 7.8834Z" fill="#232323"/>
</svg>
