<svg width="24" height="24" viewBox="0 0 24 24" fill="none" xmlns="http://www.w3.org/2000/svg">
<path fill-rule="evenodd" clip-rule="evenodd" d="M9.1202 0H14.8802C15.4325 0 15.8802 0.44772 15.8802 1V2.22C15.8802 2.79989 16.2191 3.34401 16.7788 3.66284L17.0042 3.7844C17.5289 4.0316 18.0967 4.0253 18.5512 3.76436L19.6212 3.14836C20.0989 2.87336 20.709 3.03673 20.9854 3.51362L23.8654 8.4836C24.1429 8.9626 23.9786 9.5758 23.4988 9.8518L22.4418 10.4598C21.9392 10.7489 21.6378 11.3163 21.6392 11.984L21.6451 12.1823C21.6894 12.7763 21.9811 13.2751 22.4418 13.5402L23.4988 14.1482C23.9786 14.4242 24.1429 15.0374 23.8654 15.5164L20.9854 20.4864C20.709 20.9633 20.0989 21.1266 19.6212 20.8516L18.5523 20.2362C18.0513 19.9486 17.4143 19.9696 16.8328 20.3062L16.6507 20.4174C16.165 20.7469 15.8802 21.2484 15.8802 21.78V23C15.8802 23.5523 15.4325 24 14.8802 24H9.1202C8.5679 24 8.1202 23.5523 8.1202 23V21.78C8.1202 21.2001 7.7812 20.656 7.2215 20.3372L6.9961 20.2156C6.4714 19.9684 5.903 19.9747 5.4491 20.2356L4.3791 20.8516C3.90142 21.1266 3.29129 20.9633 3.01494 20.4864L0.134941 15.5164C-0.142589 15.0374 0.0217407 14.4242 0.501561 14.1482L1.55851 13.5402C2.06112 13.2511 2.36253 12.6837 2.36117 12.016L2.35526 11.8177C2.3109 11.2237 2.01924 10.7249 1.55856 10.4598L0.501561 9.8518C0.0217407 9.5758 -0.142589 8.9626 0.134941 8.4836L3.01494 3.51362C3.29129 3.03673 3.90142 2.87336 4.3791 3.14836L5.4485 3.76403C5.9484 4.0514 6.5862 4.0303 7.1675 3.69384L7.2122 3.66806C7.7812 3.34401 8.1202 2.79989 8.1202 2.22V1C8.1202 0.44772 8.5679 0 9.1202 0ZM13.8802 2.22C13.8801 2.09847 13.7815 2 13.66 2H10.34C10.2185 2 10.1201 2.09853 10.1202 2.22C10.1202 3.46968 9.4567 4.604 8.3859 5.2941L8.1928 5.4112L7.9465 5.5458C6.8265 6.1106 5.5255 6.1152 4.4512 5.4976C4.33721 5.43204 4.19166 5.47104 4.12573 5.58481L2.47667 8.43043C2.41668 8.53394 2.45216 8.66649 2.55583 8.7262C3.64072 9.3503 4.2892 10.4922 4.3555 11.7592L4.3612 11.984L4.3555 12.2391C4.2892 13.5078 3.64072 14.6497 2.55578 15.2738C2.45226 15.3329 2.41663 15.465 2.4764 15.5681L4.12562 18.414C4.19168 18.528 4.33736 18.5673 4.4518 18.502C5.5256 17.8848 6.8265 17.8894 7.9336 18.4469L8.1388 18.5578L8.3938 18.7103C9.4567 19.396 10.1202 20.5303 10.1202 21.78C10.1201 21.9015 10.2185 22 10.34 22H13.66C13.7815 22 13.8801 21.9015 13.8802 21.78C13.8802 20.5303 14.5436 19.396 15.6144 18.7059L15.8075 18.5888L16.0538 18.4542C17.1737 17.8894 18.4736 17.8849 19.5491 18.5024C19.6624 18.5674 19.807 18.5286 19.8725 18.4156L21.5231 15.5671C21.5826 15.4644 21.5474 15.3329 21.4445 15.2738C20.3596 14.6497 19.7112 13.5078 19.6448 12.2408L19.6392 12.016L19.6448 11.7609C19.7112 10.4922 20.3596 9.3503 21.4446 8.7262C21.5476 8.66643 21.5826 8.53453 21.5229 8.43152L19.8733 5.58485C19.8074 5.47115 19.6618 5.43236 19.5481 5.4982C18.4736 6.1151 17.1737 6.1106 16.0667 5.5531L15.8615 5.4422L15.6066 5.2897C14.5436 4.604 13.8802 3.46968 13.8802 2.22ZM12 7C9.2387 7 7 9.2387 7 12C7 14.7613 9.2387 17 12 17C14.7613 17 17 14.7613 17 12C17 9.2387 14.7613 7 12 7ZM15 12C15 10.3433 13.6567 9 12 9C10.3433 9 9 10.3433 9 12C9 13.6567 10.3433 15 12 15C13.6567 15 15 13.6567 15 12Z" fill="#232323"/>
</svg>
