<svg width="17" height="25" viewBox="0 0 17 25" fill="none" xmlns="http://www.w3.org/2000/svg">
<path d="M8.39094 12.3861C10.1043 12.3861 11.6526 11.6842 12.7674 10.5695C13.8821 9.45474 14.584 7.90647 14.584 6.19306C14.584 4.47965 13.8821 2.93138 12.7674 1.81663C11.6526 0.70188 10.1043 0 8.39094 0C6.67752 0 5.12926 0.70188 4.01451 1.81663C2.89976 2.93138 2.19788 4.47965 2.19788 6.19306C2.19788 7.90647 2.89976 9.45474 4.01451 10.5695C5.12926 11.6842 6.69817 12.3861 8.39094 12.3861ZM6.40916 4.19064C6.92524 3.67455 7.62712 3.3649 8.39094 3.3649C9.17539 3.3649 9.87727 3.67455 10.3727 4.19064C10.8888 4.70673 11.1985 5.4086 11.1985 6.17242C11.1985 6.95687 10.8888 7.65875 10.3727 8.15419C9.85663 8.67028 9.15475 8.97994 8.39094 8.97994C7.60648 8.97994 6.9046 8.67028 6.40916 8.15419C5.89307 7.63811 5.58342 6.93623 5.58342 6.17242C5.58342 5.4086 5.91371 4.70673 6.40916 4.19064Z" fill="white"/>
<path d="M16.7309 14.885L14.9143 12.4078C14.8111 12.2633 14.6047 12.2426 14.4808 12.3665C12.7674 13.8322 10.6617 14.7818 8.39094 14.7818C6.12015 14.7818 4.01451 13.8322 2.3011 12.3665C2.17724 12.2633 1.9708 12.2839 1.86758 12.4078L0.0509522 14.885C-0.031622 15.0089 -0.010979 15.174 0.0922386 15.2772C1.61986 16.5158 3.3952 17.3622 5.25312 17.7957L1.41342 24.5668C1.31021 24.7526 1.45471 25.0003 1.66115 25.0003H5.41827C5.54213 25.0003 5.64535 24.9384 5.68664 24.8145L8.37029 18.8279L11.054 24.8145C11.0952 24.9178 11.1985 25.0003 11.3223 25.0003H15.0795C15.3065 25.0003 15.4304 24.7732 15.3272 24.5668L11.4875 17.7957C13.3454 17.3622 15.1208 16.5365 16.6484 15.2772C16.8135 15.174 16.8342 15.0089 16.7309 14.885Z" fill="white"/>
</svg>
