<svg width="200" height="200" viewBox="0 0 200 200" fill="none" xmlns="http://www.w3.org/2000/svg">
<rect width="200" height="200" rx="30" fill="#FF7700"/>
<path d="M99.5636 99.1635C105.396 99.1635 110.667 96.7742 114.461 92.9795C118.256 89.1848 120.645 83.9144 120.645 78.0818C120.645 72.2491 118.256 66.9787 114.461 63.184C110.667 59.3893 105.396 57 99.5636 57C93.731 57 88.4606 59.3893 84.6659 63.184C80.8711 66.9787 78.4819 72.2491 78.4819 78.0818C78.4819 83.9144 80.8711 89.1848 84.6659 92.9795C88.4606 96.7742 93.8013 99.1635 99.5636 99.1635ZM92.8175 71.2653C94.5743 69.5085 96.9635 68.4544 99.5636 68.4544C102.234 68.4544 104.623 69.5085 106.31 71.2653C108.067 73.0221 109.121 75.4114 109.121 78.0115C109.121 80.6818 108.067 83.0711 106.31 84.7576C104.553 86.5145 102.164 87.5685 99.5636 87.5685C96.8933 87.5685 94.504 86.5145 92.8175 84.7576C91.0607 83.0008 90.0066 80.6116 90.0066 78.0115C90.0066 75.4114 91.1309 73.0221 92.8175 71.2653Z" fill="white"/>
<path d="M127.954 107.667L121.77 99.2338C121.418 98.7419 120.716 98.6716 120.294 99.0933C114.461 104.083 107.294 107.315 99.5635 107.315C91.8336 107.315 84.6658 104.083 78.8331 99.0933C78.4115 98.7419 77.7088 98.8122 77.3574 99.2338L71.1734 107.667C70.8924 108.088 70.9626 108.65 71.314 109.002C76.5142 113.218 82.5576 116.099 88.8821 117.575L75.8114 140.624C75.4601 141.257 75.952 142.1 76.6547 142.1H89.4443C89.8659 142.1 90.2173 141.889 90.3578 141.468L99.4933 121.089L108.629 141.468C108.769 141.819 109.121 142.1 109.542 142.1H122.332C123.105 142.1 123.527 141.327 123.175 140.624L110.104 117.575C116.429 116.099 122.472 113.288 127.673 109.002C128.235 108.65 128.305 108.088 127.954 107.667Z" fill="white"/>
</svg>
