<svg width="65" height="62" viewBox="0 0 65 62" fill="none" xmlns="http://www.w3.org/2000/svg">
<path d="M59.892 2.81444e-06H34.281C33.7062 -0.000649345 33.137 0.112043 32.6058 0.331632C32.0746 0.551221 31.5919 0.873396 31.1853 1.27972C30.7788 1.68605 30.4563 2.16856 30.2364 2.69963C30.0165 3.23071 29.9035 3.79993 29.9038 4.37472V27.6718H4.34001C3.18844 27.6771 2.08571 28.1377 1.27258 28.9532C0.459448 29.7686 0.00196469 30.8727 1.14494e-05 32.0242V57.6253C-0.0026323 58.7803 0.452663 59.8893 1.26615 60.7093C2.07963 61.5293 3.18498 61.9934 4.34001 62H54.25C55.2318 62.0006 56.1844 61.6665 56.9509 61.0529C57.7173 60.4393 58.2517 59.5828 58.466 58.6247H59.892C61.0478 58.6175 62.1537 58.1535 62.9687 57.3339C63.7836 56.5144 64.2413 55.4058 64.2419 54.25V4.37472C64.2446 3.21796 63.7879 2.10746 62.9723 1.28718C62.1567 0.466906 61.0488 0.00394333 59.892 2.81444e-06ZM54.25 60.264H4.34001C3.64607 60.2601 2.98201 59.9811 2.49341 59.4884C2.00481 58.9956 1.73155 58.3291 1.73353 57.6352V32.0242C1.73321 31.6819 1.8004 31.3428 1.93127 31.0264C2.06215 30.71 2.25413 30.4226 2.49622 30.1805C2.73832 29.9384 3.02579 29.7464 3.34217 29.6155C3.65855 29.4846 3.99763 29.4174 4.34001 29.4178H54.25C54.5924 29.4174 54.9315 29.4846 55.2479 29.6155C55.5642 29.7464 55.8517 29.9384 56.0938 30.1805C56.3359 30.4226 56.5279 30.71 56.6587 31.0264C56.7896 31.3428 56.8568 31.6819 56.8565 32.0242V57.6253C56.857 57.9671 56.7851 58.3052 56.6457 58.6173C56.46 59.102 56.1315 59.5189 55.7037 59.8129C55.276 60.1069 54.7691 60.2642 54.25 60.264ZM62.4886 54.2599C62.4905 54.9539 62.2173 55.6203 61.7287 56.1131C61.2401 56.6059 60.576 56.8848 59.8821 56.8887H58.5999V32.0242C58.598 30.8709 58.1391 29.7654 57.3238 28.9497C56.5086 28.1339 55.4033 27.6745 54.25 27.6718H31.6498V4.37472C31.6504 3.67638 31.9276 3.00671 32.4207 2.51221C32.9138 2.01771 33.5827 1.73862 34.281 1.736H59.892C60.5859 1.73994 61.25 2.01888 61.7386 2.51166C62.2272 3.00444 62.5005 3.67086 62.4985 4.3648L62.4886 54.2599ZM50.8549 4.63512C50.8549 4.86665 50.7629 5.08869 50.5992 5.2524C50.4355 5.41611 50.2135 5.50808 49.9819 5.50808H44.1638C43.9496 5.48515 43.7515 5.38382 43.6075 5.22358C43.4635 5.06334 43.3838 4.85552 43.3838 4.64008C43.3838 4.42465 43.4635 4.21682 43.6075 4.05659C43.7515 3.89635 43.9496 3.79502 44.1638 3.77208H49.972C50.2033 3.77009 50.4261 3.85975 50.5915 4.02147C50.7569 4.18318 50.8516 4.4038 50.8549 4.63512ZM5.50065 41.9244V47.7425C5.51369 47.8643 5.50095 47.9874 5.46328 48.104C5.4256 48.2205 5.36382 48.3278 5.28195 48.4189C5.20008 48.51 5.09997 48.5829 4.9881 48.6327C4.87624 48.6826 4.75513 48.7084 4.63265 48.7084C4.51017 48.7084 4.38907 48.6826 4.2772 48.6327C4.16534 48.5829 4.06522 48.51 3.98335 48.4189C3.90149 48.3278 3.83971 48.2205 3.80203 48.104C3.76435 47.9874 3.75161 47.8643 3.76465 47.7425V41.9244C3.75161 41.8026 3.76435 41.6795 3.80203 41.5629C3.83971 41.4464 3.90149 41.3391 3.98335 41.248C4.06522 41.1569 4.16534 41.084 4.2772 41.0342C4.38907 40.9843 4.51017 40.9585 4.63265 40.9585C4.75513 40.9585 4.87624 40.9843 4.9881 41.0342C5.09997 41.084 5.20008 41.1569 5.28195 41.248C5.36382 41.3391 5.4256 41.4464 5.46328 41.5629C5.50095 41.6795 5.51369 41.8026 5.50065 41.9244ZM55.7107 44.8359C55.7107 45.2283 55.5944 45.6119 55.3764 45.9382C55.1584 46.2644 54.8485 46.5187 54.486 46.6689C54.1234 46.8191 53.7245 46.8584 53.3397 46.7818C52.9548 46.7053 52.6013 46.5163 52.3238 46.2388C52.0464 45.9614 51.8574 45.6078 51.7808 45.223C51.7043 44.8381 51.7436 44.4392 51.8937 44.0767C52.0439 43.7142 52.2982 43.4043 52.6245 43.1863C52.9507 42.9683 53.3343 42.8519 53.7267 42.8519C54.2529 42.8519 54.7576 43.061 55.1296 43.433C55.5017 43.8051 55.7107 44.3097 55.7107 44.8359ZM4.14161 19.4655C4.10067 19.3946 4.07913 19.3142 4.07915 19.2323C4.07917 19.1504 4.10075 19.07 4.14173 18.9991C4.1827 18.9282 4.24163 18.8693 4.31257 18.8285C4.38351 18.7876 4.46397 18.7661 4.54585 18.7662H5.91233C5.97701 15.9095 7.01165 13.1598 8.84617 10.969C11.0405 8.81171 13.8725 7.42009 16.9211 7.00104L16.8938 5.68416C16.892 5.60246 16.9118 5.52174 16.9511 5.45009C16.9904 5.37844 17.0479 5.31838 17.1177 5.27593C17.1875 5.23348 17.2673 5.21013 17.349 5.20822C17.4307 5.20631 17.5115 5.2259 17.5832 5.26504L21.509 7.42512C21.5805 7.46461 21.6403 7.52215 21.6825 7.59199C21.7247 7.66183 21.7479 7.74154 21.7496 7.82313C21.7514 7.90472 21.7317 7.98535 21.6925 8.05694C21.6533 8.12854 21.5961 8.1886 21.5264 8.23112L17.6923 10.5499C17.6229 10.5912 17.544 10.6138 17.4632 10.6154C17.3824 10.617 17.3026 10.5976 17.2316 10.5591C17.1606 10.5206 17.1008 10.4643 17.0581 10.3958C17.0154 10.3272 16.9913 10.2487 16.988 10.168L16.9607 8.77424C14.3843 9.15446 11.9929 10.3363 10.1259 12.152C8.59021 14.0224 7.72268 16.3519 7.66073 18.7711H9.02721C9.10897 18.7712 9.18926 18.7928 9.25996 18.8339C9.33066 18.8749 9.38924 18.9339 9.42978 19.0049C9.47031 19.0759 9.49136 19.1564 9.49078 19.2382C9.4902 19.3199 9.46802 19.4001 9.42649 19.4705L7.17961 23.3442C7.13859 23.4148 7.07978 23.4733 7.00906 23.5139C6.93834 23.5546 6.85819 23.576 6.77661 23.576C6.69503 23.576 6.61488 23.5546 6.54416 23.5139C6.47344 23.4733 6.41463 23.4148 6.37361 23.3442L4.14161 19.4655Z" fill="black"/>
</svg>
