<svg width="232" height="30" viewBox="0 0 232 30" fill="none" xmlns="http://www.w3.org/2000/svg">
<g clip-path="url(#clip0_158_1572)">
<path d="M14.9666 14.5759L9.26917 10.9975V15.3045L14.9666 18.8829L28.6052 8.80941C28.1239 7.74435 27.5178 6.7439 26.8115 5.82812L14.9666 14.5759Z" fill="white"/>
<path d="M29.9332 15C29.9332 14.082 29.8507 13.184 29.6925 12.3128L26.4706 14.6925C26.4728 14.795 26.475 14.8975 26.475 15C26.475 21.3592 21.3124 26.5352 14.9666 26.5352C8.62077 26.5352 3.45811 21.3592 3.45811 15C3.45811 8.64082 8.62077 3.4648 14.9666 3.4648C17.3708 3.4648 19.6078 4.209 21.455 5.47683L24.365 3.32665C21.7981 1.24777 18.5272 0 14.9666 0C6.70009 0 0 6.71569 0 15C0 23.2843 6.70009 30 14.9666 30C23.2331 30 29.9332 23.2843 29.9332 15Z" fill="white"/>
<path d="M87.1479 8.76751L91.2166 5.76172H77.598V23.8143H91.2166V20.8085H81.4862V16.1873H89.7861V13.1815H81.4862V8.76751H87.1479Z" fill="white"/>
<path d="M66.6421 20.8085H62.5891V15.8041H66.6421C69.1087 15.8041 70.2584 16.6418 70.2584 18.3063C70.2584 19.9707 69.0419 20.8085 66.6421 20.8085ZM67.3195 12.7983H62.5891V8.76751H70.1404L74.209 5.76172H58.7032V23.8143H66.8182C71.3703 23.8143 73.9795 21.7466 73.9795 18.1436C73.9795 14.5407 71.6132 12.8005 67.3195 12.8005V12.7983Z" fill="white"/>
<path d="M102.168 15.6949H98.7232V8.76751H102.168C104.659 8.76751 106.029 9.99746 106.029 12.2301C106.029 14.4627 104.657 15.6926 102.168 15.6926V15.6949ZM102.25 5.76172H94.8351V23.8143H98.721V18.7007H102.248C106.979 18.7007 109.92 16.2074 109.92 12.2234C109.92 8.23944 106.981 5.76395 102.248 5.76395L102.25 5.76172Z" fill="white"/>
<path d="M52.0321 19.906C51.0361 20.4563 49.8752 20.7482 48.6765 20.7482C45.1716 20.7482 42.6292 18.2415 42.6292 14.7879C42.6292 11.3342 45.1738 8.82753 48.6765 8.82753C50.0022 8.82753 51.1898 9.20186 52.2103 9.93716L54.9978 7.87833L54.8128 7.71568C53.1863 6.28297 51.0094 5.52539 48.525 5.52539C45.8289 5.52539 43.3801 6.43671 41.6332 8.09224C39.8752 9.75667 38.9082 12.0985 38.9082 14.6876C38.9082 17.2767 39.873 19.6653 41.6243 21.381C43.3824 23.1034 45.8244 24.0503 48.5027 24.0503C51.1809 24.0503 53.7522 23.0722 55.41 21.2897C54.131 20.3449 52.8944 19.4314 52.8944 19.4314L52.0321 19.9037V19.906Z" fill="white"/>
<path d="M231.97 9.07742H222.986V24.0952H219.777V6.12733H231.97V9.07965V9.07742ZM211.885 16.3167H202.054V24.0952H198.846V6.12733H202.054V13.3644H211.885V6.12733H215.094V24.0952H211.885V16.3167ZM180.873 19.552L190.68 6.12733H194.171V24.0952H190.963V10.4656L181.105 24.0952H177.665V6.12733H180.873V19.552ZM160.406 7.462C160.918 7.08544 161.68 6.72671 162.689 6.38357C163.699 6.04043 164.922 5.87109 166.359 5.87109C167.369 5.87109 168.284 5.96468 169.107 6.15407C169.929 6.32564 170.628 6.5997 171.212 6.97626C171.812 7.335 172.264 7.79846 172.571 8.36218C172.897 8.92591 173.059 9.60327 173.059 10.3898C173.059 12.4598 171.999 13.8724 169.877 14.6256C172.616 15.0355 173.984 16.4393 173.984 18.8346C173.984 19.6055 173.83 20.3319 173.523 21.0159C173.215 21.6844 172.752 22.2659 172.137 22.7606C171.52 23.2396 170.751 23.6251 169.826 23.9148C168.919 24.2067 167.868 24.3515 166.669 24.3515C165.847 24.3515 165.078 24.2824 164.358 24.1465C163.656 24.0262 163.015 23.8635 162.433 23.6585C161.869 23.4357 161.373 23.1973 160.945 22.9388C160.535 22.6648 160.209 22.3907 159.969 22.1166V18.1639C160.243 18.6251 160.593 19.0529 161.021 19.4473C161.448 19.8417 161.945 20.1826 162.509 20.4745C163.073 20.7664 163.708 20.9959 164.41 21.1674C165.127 21.3212 165.898 21.3992 166.72 21.3992C167.268 21.3992 167.781 21.339 168.26 21.2187C168.739 21.0984 169.149 20.9268 169.492 20.7062C169.851 20.4656 170.134 20.1759 170.339 19.8328C170.544 19.4896 170.646 19.0886 170.646 18.6273C170.646 17.823 170.33 17.2325 169.697 16.8559C169.08 16.4794 168.07 16.2922 166.669 16.2922H163.948V13.6474H166.644C167.226 13.6474 167.714 13.5872 168.108 13.4669C168.503 13.331 168.819 13.1505 169.057 12.9277C169.296 12.7049 169.467 12.4486 169.57 12.1567C169.69 11.8649 169.75 11.5485 169.75 11.2075C169.75 10.7976 169.666 10.4455 169.494 10.1559C169.323 9.84837 169.084 9.59881 168.777 9.41165C168.469 9.22448 168.108 9.08633 167.698 9.00166C167.288 8.89917 166.843 8.83901 166.364 8.82118C165.68 8.80336 165.029 8.88134 164.412 9.05291C163.812 9.22448 163.258 9.46289 162.743 9.77261C162.246 10.0645 161.794 10.3965 161.381 10.7731C160.987 11.1496 160.662 11.5351 160.406 11.9272V7.462ZM142.997 19.552L152.803 6.12733H156.295V24.0952H153.086V10.4656L143.229 24.0952H139.788V6.12733H142.997V19.552ZM131.896 9.07965H125.069L125.018 9.92635C124.898 12.0988 124.735 13.9638 124.53 15.5213C124.325 17.0788 124.084 18.3956 123.81 19.474C123.554 20.5346 123.253 21.3903 122.912 22.0409C122.587 22.6737 122.237 23.1616 121.861 23.5048C121.484 23.8479 121.083 24.0685 120.655 24.1732C120.245 24.2757 119.826 24.327 119.398 24.327C118.799 24.327 118.32 24.2423 117.961 24.0707V20.8354C118.097 20.8867 118.226 20.9201 118.347 20.9379C118.483 20.9558 118.612 20.9647 118.732 20.9647C118.937 20.9647 119.142 20.9313 119.347 20.8622C119.57 20.7931 119.784 20.6394 119.989 20.401C120.212 20.1447 120.417 19.7771 120.604 19.298C120.791 18.8011 120.971 18.1438 121.143 17.3216C121.315 16.4994 121.468 15.4812 121.604 14.2668C121.74 13.0525 121.852 11.5796 121.939 9.85282L122.119 6.13179H135.107V24.0952H131.898V9.07742L131.896 9.07965Z" fill="white"/>
</g>
<defs>
<clipPath id="clip0_158_1572">
<rect width="231.97" height="30" fill="white"/>
</clipPath>
</defs>
</svg>
