<svg width="28" height="19" viewBox="0 0 28 19" fill="none" xmlns="http://www.w3.org/2000/svg">
<path fill-rule="evenodd" clip-rule="evenodd" d="M15.0001 0H21.6671C22.0598 0 22.4162 0.2299 22.5781 0.5876L25.9331 8H26C27.1053 8 28 8.8947 28 10V14C28 15.1053 27.1053 16 26 16H24.7087C24.4661 17.6964 23.0076 19 21.2441 19C19.4806 19 18.0221 17.6964 17.7795 16H9.7087C9.4661 17.6964 8.0076 19 6.2441 19C4.48058 19 3.02208 17.6964 2.77953 16H1C0.44772 16 0 15.5523 0 15V9C0 8.4477 0.44772 8 1 8H9.0005L8.9998 6.349L5.52084 2H1.58984C1.07701 2 0.65434 1.614 0.59657 1.1166L0.58984 1C0.58984 0.4872 0.97588 0.0644996 1.47322 0.00669956L1.58984 0H6.0008C6.2612 0 6.5095 0.1015 6.6946 0.2798L6.7817 0.3753L10.7817 5.3753C10.8952 5.5172 10.9673 5.6865 10.9917 5.8649L11.0008 6V8H14.0001V1C14.0001 0.4477 14.4478 0 15.0001 0ZM26 14H24.4074C23.8458 12.8174 22.6406 12 21.2441 12C19.8476 12 18.6424 12.8174 18.0808 14H9.4074C8.8458 12.8174 7.6406 12 6.2441 12C4.84764 12 3.64245 12.8174 3.08081 14H2V10H10.0008H15.0001H25.2881H26V14ZM21.022 2L23.738 8H16V2H21.022ZM7.7441 15.5C7.7441 14.6713 7.0728 14 6.2441 14C5.41538 14 4.7441 14.6713 4.7441 15.5C4.7441 16.3287 5.41538 17 6.2441 17C7.0728 17 7.7441 16.3287 7.7441 15.5ZM22.7441 15.5C22.7441 14.6713 22.0728 14 21.2441 14C20.4154 14 19.7441 14.6713 19.7441 15.5C19.7441 16.3287 20.4154 17 21.2441 17C22.0728 17 22.7441 16.3287 22.7441 15.5Z" fill="#232323"/>
</svg>
