<svg width="25" height="22" viewBox="0 0 25 22" fill="none" xmlns="http://www.w3.org/2000/svg">
<path d="M24.9479 1.04167L21.0458 20.9646C21.0458 20.9646 20.8781 21.875 19.749 21.875C19.149 21.875 18.8396 21.5896 18.8396 21.5896L10.3875 14.576L6.25208 12.4917L0.944791 11.0802C0.944791 11.0802 0 10.8073 0 10.026C0 9.375 0.971875 9.06459 0.971875 9.06459L23.176 0.243754C23.175 0.242712 23.8542 -0.00103834 24.349 3.32918e-06C24.6531 3.32918e-06 25 0.130212 25 0.520837C25 0.781254 24.9479 1.04167 24.9479 1.04167Z" fill="white"/>
<path d="M13.5416 17.193L9.97289 20.7076C9.97289 20.7076 9.81768 20.8273 9.61039 20.8326C9.53851 20.8346 9.46143 20.8232 9.38226 20.7878L10.3864 14.5742L13.5416 17.193Z" fill="#B0BEC5"/>
<path d="M20.7262 4.37007C20.5502 4.1409 20.2252 4.09924 19.996 4.2732L6.25018 12.4992C6.25018 12.4992 8.44393 18.6367 8.77831 19.6992C9.11372 20.7628 9.38247 20.7878 9.38247 20.7878L10.3866 14.5742L20.6283 5.09924C20.8575 4.92528 20.9002 4.59924 20.7262 4.37007Z" fill="#CFD8DC"/>
</svg>
