<svg width="28" height="19" viewBox="0 0 28 19" fill="none" xmlns="http://www.w3.org/2000/svg">
<path d="M16.5695 9.60516C17.1236 9.60516 17.5728 9.15596 17.5728 8.60186V2.49256C17.5728 1.93845 17.1236 1.48926 16.5695 1.48926C16.0154 1.48926 15.5662 1.93845 15.5662 2.49256V8.60186C15.5662 9.15596 16.0154 9.60516 16.5695 9.60516Z" fill="#232323"/>
<path fill-rule="evenodd" clip-rule="evenodd" d="M25.8278 7.94697H25.7583L22.4304 0.58609C22.3521 0.4118 22.2251 0.26381 22.0648 0.15986C21.9045 0.0558997 21.7176 0.0004 21.5265 0H0.99338C0.72992 0 0.47725 0.10466 0.29096 0.29095C0.10466 0.47725 0 0.72992 0 0.99338V14.9007C0 15.1641 0.10466 15.4168 0.29096 15.6031C0.47725 15.7894 0.72992 15.8941 0.99338 15.8941H2.76159C2.87968 16.7228 3.29284 17.4812 3.92516 18.0298C4.55748 18.5784 5.36651 18.8804 6.20364 18.8804C7.04082 18.8804 7.84982 18.5784 8.48212 18.0298C9.11442 17.4812 9.52762 16.7228 9.64572 15.8941H17.6622C17.7803 16.7228 18.1935 17.4812 18.8258 18.0298C19.4581 18.5784 20.2671 18.8804 21.1043 18.8804C21.9414 18.8804 22.7505 18.5784 23.3828 18.0298C24.0151 17.4812 24.4282 16.7228 24.5463 15.8941H25.8278C26.3547 15.8941 26.8601 15.6847 27.2326 15.3122C27.6052 14.9396 27.8146 14.4342 27.8146 13.9073V9.93377C27.8146 9.40687 27.6052 8.90147 27.2326 8.52897C26.8601 8.15637 26.3547 7.94697 25.8278 7.94697ZM6.17881 16.8874C5.8841 16.8874 5.59601 16.8001 5.35097 16.6363C5.10593 16.4726 4.91495 16.2399 4.80217 15.9676C4.68939 15.6953 4.65988 15.3957 4.71738 15.1067C4.77487 14.8176 4.91678 14.5521 5.12517 14.3437C5.33356 14.1354 5.59907 13.9934 5.88811 13.9359C6.17716 13.8784 6.47672 13.908 6.74902 14.0207C7.02132 14.1335 7.25402 14.3245 7.41772 14.5695C7.58152 14.8146 7.66892 15.1027 7.66892 15.3974C7.66892 15.7926 7.51192 16.1716 7.23242 16.451C6.95302 16.7305 6.57402 16.8874 6.17881 16.8874ZM21.0795 16.8874C20.7847 16.8874 20.4967 16.8001 20.2516 16.6363C20.0066 16.4726 19.8156 16.2399 19.7028 15.9676C19.59 15.6953 19.5605 15.3957 19.618 15.1067C19.6755 14.8176 19.8174 14.5521 20.0258 14.3437C20.2342 14.1354 20.4997 13.9934 20.7888 13.9359C21.0778 13.8784 21.3774 13.908 21.6497 14.0207C21.9219 14.1335 22.1547 14.3245 22.3184 14.5695C22.4821 14.8146 22.5695 15.1027 22.5695 15.3974C22.5695 15.7926 22.4125 16.1716 22.1331 16.451C21.8536 16.7305 21.4746 16.8874 21.0795 16.8874ZM25.798 13.9073H24.2483C23.967 13.3114 23.522 12.8077 22.9654 12.4549C22.4087 12.1021 21.7633 11.9148 21.1043 11.9148C20.4453 11.9148 19.7998 12.1021 19.2432 12.4549C18.6865 12.8077 18.2416 13.3114 17.9602 13.9073H9.34772C9.06632 13.3114 8.62142 12.8077 8.06472 12.4549C7.50812 12.1021 6.86262 11.9148 6.20364 11.9148C5.54463 11.9148 4.89918 12.1021 4.34253 12.4549C3.78589 12.8077 3.34096 13.3114 3.05961 13.9073H1.98676V9.93377V7.94697V1.98677H20.8609L23.5629 7.94697H15.5563V9.93377H25.8278L25.798 13.9073Z" fill="#232323"/>
</svg>
