<svg width="200" height="200" viewBox="0 0 200 200" fill="none" xmlns="http://www.w3.org/2000/svg">
<rect width="200" height="200" rx="30" fill="#30A8E4"/>
<path d="M134.26 72.8501L123.584 127.361C123.584 127.361 123.125 129.852 120.035 129.852C118.394 129.852 117.547 129.071 117.547 129.071L94.4213 109.882L83.1063 104.178L68.585 100.317C68.585 100.317 66 99.5699 66 97.4323C66 95.651 68.6591 94.8016 68.6591 94.8016L129.412 70.6669C129.409 70.6641 131.267 69.9972 132.621 70C133.453 70 134.403 70.3563 134.403 71.4251C134.403 72.1376 134.26 72.8501 134.26 72.8501Z" fill="white"/>
<path d="M103.051 117.04L93.2868 126.656C93.2868 126.656 92.8622 126.984 92.295 126.998C92.0984 127.004 91.8874 126.973 91.6708 126.876L94.4183 109.875L103.051 117.04Z" fill="#B0BEC5"/>
<path d="M122.709 81.9587C122.227 81.3317 121.338 81.2177 120.711 81.6936L83.1011 104.201C83.1011 104.201 89.1034 120.994 90.0183 123.901C90.936 126.811 91.6713 126.879 91.6713 126.879L94.4188 109.878L122.441 83.9538C123.068 83.4778 123.185 82.5857 122.709 81.9587Z" fill="#CFD8DC"/>
</svg>
